<svg width="30" height="29" viewBox="0 0 30 29" fill="none" xmlns="http://www.w3.org/2000/svg">
<g clip-path="url(#clip0_9_103)">
<path d="M27.7814 0.661896H2.95796C1.76884 0.661896 0.807312 1.55373 0.807312 2.65636V26.3359C0.807312 27.4386 1.76884 28.3358 2.95796 28.3358H27.7814C28.9705 28.3358 29.9377 27.4386 29.9377 26.3413V2.65636C29.9377 1.55373 28.9705 0.661896 27.7814 0.661896ZM9.44972 24.2442H5.12567V11.0342H9.44972V24.2442ZM7.2877 9.23432C5.89945 9.23432 4.77861 8.16953 4.77861 6.8561C4.77861 5.54267 5.89945 4.47787 7.2877 4.47787C8.67025 4.47787 9.79109 5.54267 9.79109 6.8561C9.79109 8.16412 8.67025 9.23432 7.2877 9.23432ZM25.6308 24.2442H21.3124V17.823C21.3124 16.2933 21.284 14.3205 19.065 14.3205C16.8177 14.3205 16.4763 15.9907 16.4763 17.7149V24.2442H12.1636V11.0342H16.3056V12.8395H16.3625C16.9371 11.8017 18.3482 10.7045 20.4476 10.7045C24.8229 10.7045 25.6308 13.4395 25.6308 16.996V24.2442Z" fill="white"/>
</g>
<defs>
<clipPath id="clip0_9_103">
<rect width="29.1304" height="27.6739" fill="white" transform="translate(0.807312 0.661896)"/>
</clipPath>
</defs>
</svg>
