<svg width="28" height="29" viewBox="0 0 28 29" fill="none" xmlns="http://www.w3.org/2000/svg">
<g clip-path="url(#clip0_9_102)">
<path d="M23.4419 5.42475C21.678 4.61543 19.7866 4.01915 17.8089 3.67764C17.7729 3.67105 17.737 3.68752 17.7184 3.72047C17.4751 4.15312 17.2057 4.71755 17.017 5.16119C14.8899 4.84274 12.7738 4.84274 10.6903 5.16119C10.5016 4.70769 10.2224 4.15312 9.97801 3.72047C9.95946 3.68862 9.92348 3.67215 9.88747 3.67764C7.91093 4.01806 6.01947 4.61434 4.25454 5.42475C4.23926 5.43134 4.22616 5.44233 4.21747 5.4566C0.629783 10.8165 -0.353035 16.0447 0.129103 21.2081C0.131284 21.2333 0.145464 21.2575 0.165099 21.2729C2.53215 23.0112 4.82505 24.0665 7.07537 24.766C7.11138 24.777 7.14954 24.7638 7.17246 24.7341C7.70477 24.0072 8.17929 23.2407 8.58613 22.4347C8.61014 22.3875 8.58722 22.3315 8.53815 22.3128C7.7855 22.0273 7.06882 21.6792 6.37943 21.2839C6.3249 21.252 6.32053 21.174 6.3707 21.1367C6.51577 21.028 6.66088 20.9149 6.79941 20.8007C6.82447 20.7798 6.8594 20.7754 6.88886 20.7886C11.4179 22.8564 16.3211 22.8564 20.7966 20.7886C20.8261 20.7743 20.861 20.7787 20.8872 20.7996C21.0257 20.9138 21.1708 21.028 21.317 21.1367C21.3672 21.174 21.3639 21.252 21.3093 21.2839C20.62 21.6868 19.9033 22.0273 19.1495 22.3117C19.1005 22.3304 19.0786 22.3875 19.1026 22.4347C19.5182 23.2396 19.9927 24.0061 20.5152 24.733C20.5371 24.7638 20.5763 24.777 20.6123 24.766C22.8735 24.0665 25.1664 23.0112 27.5335 21.2729C27.5542 21.2575 27.5673 21.2344 27.5695 21.2092C28.1465 15.2398 26.603 10.0544 23.4779 5.45769C23.4702 5.44233 23.4572 5.43134 23.4419 5.42475ZM9.26247 18.0641C7.89892 18.0641 6.7754 16.8123 6.7754 15.2749C6.7754 13.7375 7.87713 12.4857 9.26247 12.4857C10.6587 12.4857 11.7713 13.7485 11.7495 15.2749C11.7495 16.8123 10.6478 18.0641 9.26247 18.0641ZM18.458 18.0641C17.0945 18.0641 15.9709 16.8123 15.9709 15.2749C15.9709 13.7375 17.0726 12.4857 18.458 12.4857C19.8542 12.4857 20.9668 13.7485 20.945 15.2749C20.945 16.8123 19.8542 18.0641 18.458 18.0641Z" fill="white"/>
</g>
<defs>
<clipPath id="clip0_9_102">
<rect width="27.6739" height="27.6739" fill="white" transform="translate(0.01474 0.633026)"/>
</clipPath>
</defs>
</svg>
