<svg width="28" height="29" viewBox="0 0 28 29" fill="none" xmlns="http://www.w3.org/2000/svg">
<g clip-path="url(#clip0_9_105)">
<path fill-rule="evenodd" clip-rule="evenodd" d="M14.065 0.862381C6.40715 0.862381 0.216553 7.09861 0.216553 14.8137C0.216553 20.9808 4.18308 26.201 9.68571 28.0487C10.3737 28.1876 10.6257 27.7485 10.6257 27.3791C10.6257 27.0557 10.603 25.9471 10.603 24.7919C6.75071 25.6236 5.9485 23.1289 5.9485 23.1289C5.32941 21.512 4.41212 21.0964 4.41212 21.0964C3.15127 20.2418 4.50396 20.2418 4.50396 20.2418C5.90258 20.3342 6.63647 21.6738 6.63647 21.6738C7.87436 23.7987 9.86911 23.1983 10.6716 22.8287C10.7861 21.9278 11.1532 21.3042 11.543 20.9578C8.47049 20.6344 5.23785 19.4333 5.23785 14.0744C5.23785 12.5499 5.78778 11.3027 6.65915 10.3327C6.52167 9.98627 6.04006 8.55392 6.79691 6.63685C6.79691 6.63685 7.96621 6.26721 10.6027 8.06892C11.7315 7.76353 12.8956 7.60817 14.065 7.60687C15.2343 7.60687 16.4262 7.76873 17.5269 8.06892C20.1637 6.26721 21.333 6.63685 21.333 6.63685C22.0899 8.55392 21.608 9.98627 21.4705 10.3327C22.3648 11.3027 22.8921 12.5499 22.8921 14.0744C22.8921 19.4333 19.6594 20.6111 16.564 20.9578C17.0686 21.3966 17.504 22.228 17.504 23.5447C17.504 25.4156 17.4813 26.9171 17.4813 27.3788C17.4813 27.7485 17.7336 28.1876 18.4213 28.049C23.9239 26.2008 27.8904 20.9808 27.8904 14.8137C27.9131 7.09861 21.6998 0.862381 14.065 0.862381Z" fill="white"/>
</g>
<defs>
<clipPath id="clip0_9_105">
<rect width="27.6739" height="27.6739" fill="white" transform="translate(0.216553 0.862381)"/>
</clipPath>
</defs>
</svg>
