<svg width="28" height="29" viewBox="0 0 28 29" fill="none" xmlns="http://www.w3.org/2000/svg">
<g clip-path="url(#clip0_9_104)">
<path d="M13.8834 3.15363C17.5805 3.15363 18.0183 3.16984 19.4722 3.2347C20.8235 3.29416 21.5532 3.52117 22.0396 3.71035C22.6828 3.95898 23.1477 4.26167 23.6287 4.74272C24.1152 5.22917 24.4125 5.6886 24.6611 6.33181C24.8503 6.81826 25.0773 7.55335 25.1367 8.89921C25.2016 10.3586 25.2178 10.7964 25.2178 14.488C25.2178 18.1851 25.2016 18.6229 25.1367 20.0769C25.0773 21.4281 24.8503 22.1578 24.6611 22.6443C24.4125 23.2875 24.1098 23.7523 23.6287 24.2334C23.1423 24.7198 22.6828 25.0171 22.0396 25.2657C21.5532 25.4549 20.8181 25.6819 19.4722 25.7414C18.0129 25.8062 17.5751 25.8225 13.8834 25.8225C10.1863 25.8225 9.74853 25.8062 8.29457 25.7414C6.94331 25.6819 6.21362 25.4549 5.72717 25.2657C5.08397 25.0171 4.61913 24.7144 4.13808 24.2334C3.65162 23.7469 3.35435 23.2875 3.10571 22.6443C2.91654 22.1578 2.68952 21.4227 2.63007 20.0769C2.56521 18.6175 2.54899 18.1797 2.54899 14.488C2.54899 10.791 2.56521 10.3532 2.63007 8.89921C2.68952 7.54794 2.91654 6.81826 3.10571 6.33181C3.35435 5.6886 3.65703 5.22377 4.13808 4.74272C4.62453 4.25626 5.08397 3.95898 5.72717 3.71035C6.21362 3.52117 6.94871 3.29416 8.29457 3.2347C9.74853 3.16984 10.1863 3.15363 13.8834 3.15363ZM13.8834 0.661896C10.1269 0.661896 9.65665 0.678111 8.18107 0.742972C6.71089 0.807832 5.70014 1.04566 4.82452 1.38617C3.91107 1.74291 3.13814 2.21315 2.37062 2.98607C1.5977 3.75359 1.12746 4.52652 0.770726 5.43457C0.430207 6.31559 0.192384 7.32093 0.127524 8.79111C0.0626629 10.2721 0.0464478 10.7423 0.0464478 14.4989C0.0464478 18.2554 0.0626629 18.7256 0.127524 20.2012C0.192384 21.6714 0.430207 22.6821 0.770726 23.5577C1.12746 24.4712 1.5977 25.2441 2.37062 26.0116C3.13814 26.7792 3.91107 27.2548 4.81912 27.6061C5.70014 27.9466 6.70548 28.1845 8.17566 28.2493C9.65124 28.3142 10.1215 28.3304 13.878 28.3304C17.6345 28.3304 18.1048 28.3142 19.5803 28.2493C21.0505 28.1845 22.0613 27.9466 22.9369 27.6061C23.8449 27.2548 24.6179 26.7792 25.3854 26.0116C26.1529 25.2441 26.6285 24.4712 26.9799 23.5631C27.3204 22.6821 27.5582 21.6768 27.6231 20.2066C27.6879 18.731 27.7041 18.2608 27.7041 14.5043C27.7041 10.7477 27.6879 10.2775 27.6231 8.80192C27.5582 7.33174 27.3204 6.32099 26.9799 5.44537C26.6393 4.52651 26.1691 3.75359 25.3962 2.98607C24.6287 2.21855 23.8557 1.74291 22.9477 1.39158C22.0667 1.05106 21.0613 0.813237 19.5912 0.748377C18.1102 0.678111 17.6399 0.661896 13.8834 0.661896Z" fill="white"/>
<path d="M13.8834 7.3912C9.95934 7.3912 6.77576 10.5748 6.77576 14.4989C6.77576 18.4229 9.95934 21.6065 13.8834 21.6065C17.8075 21.6065 20.9911 18.4229 20.9911 14.4989C20.9911 10.5748 17.8075 7.3912 13.8834 7.3912ZM13.8834 19.1094C11.3376 19.1094 9.2729 17.0446 9.2729 14.4989C9.2729 11.9531 11.3376 9.88834 13.8834 9.88834C16.4292 9.88834 18.4939 11.9531 18.4939 14.4989C18.4939 17.0446 16.4292 19.1094 13.8834 19.1094Z" fill="white"/>
<path d="M22.9315 7.11009C22.9315 8.02895 22.1856 8.76944 21.2721 8.76944C20.3533 8.76944 19.6128 8.02354 19.6128 7.11009C19.6128 6.19122 20.3587 5.45073 21.2721 5.45073C22.1856 5.45073 22.9315 6.19663 22.9315 7.11009Z" fill="white"/>
</g>
<defs>
<clipPath id="clip0_9_104">
<rect width="27.6739" height="27.6739" fill="white" transform="translate(0.0464478 0.661896)"/>
</clipPath>
</defs>
</svg>
