<svg width="28" height="28" viewBox="0 0 28 28" fill="none" xmlns="http://www.w3.org/2000/svg">
<g clip-path="url(#clip0_9_101)">
<path d="M27.36 8.97619C27.36 8.97619 27.0959 7.1115 26.2824 6.29273C25.2523 5.21512 24.1008 5.20984 23.5725 5.14645C19.7904 4.87176 14.1118 4.87177 14.1118 4.87177H14.1012C14.1012 4.87177 8.42263 4.87176 4.64044 5.14645C4.1122 5.20984 2.96064 5.21512 1.93057 6.29273C1.11708 7.1115 0.858242 8.97619 0.858242 8.97619C0.858242 8.97619 0.583557 11.1684 0.583557 13.3553V15.4049C0.583557 17.5918 0.852959 19.784 0.852959 19.784C0.852959 19.784 1.11708 21.6487 1.92529 22.4674C2.95535 23.545 4.30765 23.5081 4.90984 23.6243C7.07562 23.8303 14.1065 23.8937 14.1065 23.8937C14.1065 23.8937 19.7904 23.8831 23.5725 23.6137C24.1008 23.5503 25.2523 23.545 26.2824 22.4674C27.0959 21.6487 27.36 19.784 27.36 19.784C27.36 19.784 27.6294 17.5971 27.6294 15.4049V13.3553C27.6294 11.1684 27.36 8.97619 27.36 8.97619ZM11.3121 17.8929V10.2915L18.6177 14.1054L11.3121 17.8929Z" fill="white"/>
</g>
<defs>
<clipPath id="clip0_9_101">
<rect width="27.0459" height="27.0459" fill="white" transform="translate(0.583557 0.862381)"/>
</clipPath>
</defs>
</svg>
